<svg width="220" height="88" viewBox="0 0 220 88" fill="none" xmlns="http://www.w3.org/2000/svg">
<path fill-rule="evenodd" clip-rule="evenodd" d="M3.9894 77.5281C2.52661 76.5904 1.56249 75.2173 0.964073 73.141C0.631619 71.9689 0.664864 71.5 1.1303 70.0265C2.16091 66.912 4.55457 65.4049 9.24217 64.9026C10.838 64.7351 12.7994 64.5007 13.6306 64.3668L15.1266 64.1658L15.1931 62.3239C15.3261 59.7787 14.5282 58.2717 12.7994 57.6689C11.1372 57.133 7.44692 57.334 5.21948 58.1377C3.3245 58.8075 2.65959 58.6066 2.65959 57.4679C2.65959 56.7312 2.92555 56.5637 5.21948 55.8269C9.0427 54.6213 11.6358 54.186 14.1625 54.3199C17.2543 54.4874 18.8501 55.3581 19.9139 57.4679C20.7451 59.0754 20.7783 59.3098 20.9446 68.3185C21.0443 73.4089 21.1108 77.5616 21.1108 77.5951C21.1108 77.5951 20.0137 77.729 18.6839 77.863L16.257 78.0974L15.8913 77.0593C15.6918 76.4899 15.4591 76.0546 15.3593 76.0546C15.2596 76.0546 13.8633 76.4899 12.2343 77.0593C10.6052 77.5951 8.41104 78.1309 7.31394 78.2314C5.58518 78.3653 5.11975 78.2649 3.9894 77.5281ZM8.34455 74.3466C7.6464 73.9782 6.88175 73.3084 6.68228 72.8396C6.05062 71.4665 6.21684 69.2227 6.98149 68.218C7.84587 67.1129 10.4058 66.3426 13.2649 66.3091H15.4591L15.3261 70.0265L15.2263 73.7103L14.096 74.2127C12.1013 75.0499 9.80735 75.1169 8.34455 74.3466Z" fill="#050007"/>
<path fill-rule="evenodd" clip-rule="evenodd" d="M172.377 56.7981L172.543 56.6307L173.142 56.3628C173.474 56.2288 173.973 55.9609 174.239 55.7265C174.472 55.5255 175.436 55.1237 176.333 54.8223C177.231 54.5209 178.96 54.2864 180.157 54.2864C181.553 54.2864 182.816 54.5209 183.681 54.8892C184.412 55.2241 185.409 55.9944 185.908 56.5637C186.374 57.133 186.939 58.1377 187.171 58.8075C187.371 59.4773 187.504 61.0513 187.437 62.3574C187.338 63.9314 187.138 64.8021 186.806 65.0031C186.54 65.204 185.808 65.271 185.177 65.1705C184.512 65.07 181.819 65.1705 179.193 65.338C176.533 65.5389 174.006 65.7733 173.607 65.8403C173.142 65.9408 172.876 66.2422 172.876 66.644C172.876 66.9789 173.175 68.1176 173.574 69.1892C174.139 70.6293 174.704 71.3996 175.935 72.4042C176.832 73.1075 178.195 73.8443 178.96 74.0452C179.791 74.2796 181.453 74.3466 183.182 74.2462C184.711 74.1457 186.54 73.9448 187.238 73.8443C188.402 73.6433 188.468 73.6768 188.468 74.4136C188.468 75.0499 188.136 75.3513 186.739 75.9876C185.775 76.423 183.581 77.1263 181.885 77.5616C180.157 78.0305 178.029 78.3989 177.165 78.3989C176.167 78.3989 174.871 78.064 173.774 77.5951C172.809 77.1597 171.446 76.1885 170.715 75.4853C170.017 74.782 169.119 73.5094 168.754 72.7056C168.388 71.8684 167.922 70.2609 167.69 69.1223C167.457 67.8162 167.39 66.4096 167.557 65.3045C167.723 64.3668 168.089 62.8263 168.388 61.922C168.754 60.8504 169.518 59.7117 170.549 58.6066L172.211 56.9656L172.377 56.7981ZM172.876 62.8263C172.876 62.19 173.009 61.5871 173.208 61.4867C173.375 61.3527 173.541 60.9843 173.541 60.6159C173.541 60.2476 174.006 59.4103 174.605 58.774C175.569 57.7024 175.935 57.5349 177.73 57.401C179.625 57.2 179.791 57.267 180.855 58.2047C181.852 59.1089 181.985 59.4103 182.085 61.3527L182.251 63.5295L180.389 63.5965C179.359 63.63 177.231 63.7305 175.702 63.8309L172.876 63.9984V62.8263Z" fill="#050007"/>
<path fill-rule="evenodd" clip-rule="evenodd" d="M194.652 75.2174L194.485 75.0499L193.954 74.2797C193.688 73.8778 193.189 72.7726 192.823 71.8684C192.491 70.9307 192.125 69.3902 191.992 68.4525C191.859 67.4478 191.926 65.8738 192.125 64.7686C192.324 63.697 192.69 62.4244 192.923 61.989C193.122 61.5202 193.488 60.9508 193.721 60.6829C193.954 60.4485 194.153 60.1136 194.153 59.9462C194.153 59.7452 194.685 59.0754 195.35 58.4391C195.981 57.8028 197.212 56.8651 198.043 56.3963C198.874 55.8939 200.536 55.2241 201.733 54.8893C203.129 54.4874 205.057 54.2864 207.019 54.2864H210.111V47.3541C210.111 41.3595 210.011 40.3548 209.546 39.819C209.18 39.4171 208.548 39.2162 207.717 39.2162C206.587 39.2162 206.454 39.1157 206.454 38.4124C206.454 37.7092 206.72 37.6087 210.211 36.8719C212.272 36.47 214.3 36.2021 214.699 36.3361L215.43 36.5705V55.0567C215.43 65.204 215.596 74.2797 215.729 75.2174C215.929 76.423 215.896 76.9923 215.596 77.3272C215.364 77.5616 214.233 77.863 213.103 77.9635L211.075 78.1309L210.676 77.0928C210.443 76.49 210.044 76.0546 209.745 76.0546C209.446 76.0546 207.784 76.49 206.055 77.0928C204.359 77.6621 202.132 78.1979 201.101 78.2984C199.572 78.4323 198.974 78.3319 197.544 77.5951C196.613 77.1263 195.616 76.423 195.317 76.0546L194.818 75.3848L194.652 75.2174ZM202.398 74.849C201.002 74.4471 199.572 73.0405 198.608 71.0982C197.743 69.4237 197.611 68.7539 197.511 65.7064C197.411 62.9267 197.511 61.9555 197.976 60.9174C198.309 60.2141 198.674 59.6448 198.841 59.6448C199.007 59.6448 199.14 59.4438 199.14 59.2094C199.14 58.6736 199.971 57.9368 201.201 57.3675C202.365 56.8316 206.886 56.8316 207.883 57.334C208.282 57.5349 208.947 58.0038 209.346 58.3722C210.078 59.0754 210.111 59.2429 210.111 66.3427V73.6099L208.116 74.1457C205.656 74.8155 203.362 75.0834 202.398 74.849Z" fill="#050007"/>
<path fill-rule="evenodd" clip-rule="evenodd" d="M45.7124 77.8965L45.5461 77.729L45.2137 77.5281C45.0142 77.4276 44.848 73.8108 44.7815 68.9213C44.715 61.0848 44.6485 60.415 44.0501 59.5443C43.6844 59.0419 42.8865 58.4056 42.3213 58.1377C41.7562 57.8363 40.6591 57.6019 39.9277 57.6354C39.163 57.6354 37.6005 57.9368 36.4037 58.3387L34.2427 59.0419L34.143 68.285L34.0765 77.5281L31.9155 77.796C30.7519 77.9635 29.5884 77.997 29.3556 77.8965C28.9899 77.7625 28.9234 75.8536 28.9234 68.419C28.9234 60.6494 28.8237 58.975 28.3915 58.3722C28.0591 57.9033 27.3942 57.5684 26.3968 57.4345C25.2997 57.267 24.9008 57.0661 24.9008 56.6307C24.9008 56.1619 25.6322 55.9274 28.6575 55.3246C30.7187 54.9227 32.7134 54.5878 33.1124 54.5878C33.6443 54.5878 33.9103 54.8558 34.0765 55.626C34.1762 56.1619 34.3757 56.6307 34.4754 56.6307C34.5752 56.6307 36.1045 56.1284 37.8332 55.559C39.5952 54.9897 42.0554 54.4539 43.2855 54.3534C44.9145 54.2195 45.9118 54.3199 46.9757 54.7218C47.9731 55.1237 48.7044 55.7265 49.3694 56.6977L50.3667 58.1377L50.4332 67.5148C50.5329 75.4853 50.4665 76.9923 50.0675 77.3607C49.8015 77.5616 48.7377 77.8295 47.7071 77.8965L45.8786 78.0639" fill="#050007"/>
<path fill-rule="evenodd" clip-rule="evenodd" d="M61.6701 54.7888L61.8363 54.6213H62.8337C63.4986 54.6213 63.831 54.7888 63.831 55.1237C63.831 55.3916 63.831 55.693 63.831 55.7935V55.9609L63.9973 56.1284L64.1635 56.2958V56.5302C64.1635 56.6642 64.097 61.4532 64.0638 67.1799L63.9973 77.5616L61.5371 77.8295C60.2073 77.997 59.0105 77.997 58.8775 77.8965C58.7777 77.7625 58.678 73.4089 58.678 68.1846C58.678 60.8169 58.5783 58.6066 58.2126 58.2047C57.9799 57.9033 57.1487 57.5684 56.3841 57.4345C55.3867 57.3005 54.9545 57.0661 54.9213 56.6642C54.888 56.1619 55.4532 55.9609 57.9466 55.4921C59.6089 55.1907 61.1049 54.9227 61.2379 54.9227L61.5039 54.9562" fill="#050007"/>
<path fill-rule="evenodd" clip-rule="evenodd" d="M0 86.2689V85.4316H109.71H219.42V86.2689V87.1061H109.71H0V86.2689Z" fill="#019740"/>
<path fill-rule="evenodd" clip-rule="evenodd" d="M71.3113 78.1644C70.7794 77.4611 71.3113 72.9066 72.4416 67.8496C72.6079 67.1129 73.0068 65.137 73.2728 63.496C74.1372 58.5061 76.7303 44.1391 77.9604 37.5417C78.2596 35.9677 78.8248 32.5852 79.2569 30.0066C79.6891 27.4279 80.5868 22.6054 81.2517 19.2899C82.9804 10.6496 83.0137 10.0803 81.9831 6.96581C80.9857 4.05222 80.886 2.31077 81.5841 1.60749C82.1493 1.00468 88.4327 0 91.4248 0C94.4168 0.0334895 95.381 0.669789 96.1788 3.21499C96.5445 4.32014 97.0765 5.82717 97.4089 6.56393C97.7414 7.3007 98.5393 9.37705 99.2042 11.219C99.9023 13.0609 101.033 16.1419 101.764 18.0843C103.061 21.5002 104.324 24.8492 105.853 29.0019C107.482 33.389 109.111 37.6422 111.505 43.8042C112.901 47.3541 114.032 50.3347 114.032 50.4351C114.032 50.9375 116.159 56.1618 116.558 56.5972C116.891 56.9656 116.99 56.8986 117.19 56.0948C117.323 55.559 117.988 53.985 118.686 52.6119C119.351 51.2054 120.149 49.5644 120.415 48.9281C121.246 46.9187 122.276 44.541 125.136 37.8766C125.734 36.47 126.864 33.8578 127.629 32.0159C128.394 30.174 129.457 27.6958 129.989 26.5571C130.521 25.385 130.987 24.2464 130.987 24.0454C130.987 23.811 131.253 23.1747 131.585 22.6389C131.884 22.0696 132.383 21.0984 132.616 20.4621C132.848 19.7923 134.045 17.1801 135.242 14.6014L137.47 9.91288L137.37 5.99461C137.303 2.5452 137.37 2.07635 137.935 1.54052C138.7 0.837237 141.293 0.401874 146.113 0.133958C149.371 -0.0334895 149.837 0 150.535 0.569321C151.366 1.23911 151.532 2.10984 152.729 12.2571C153.028 14.6349 153.461 18.3522 153.76 20.4956C154.259 24.2464 154.757 28.4326 156.22 41.2255C156.586 44.4405 157.051 48.1244 157.217 49.4304C157.417 50.703 157.716 53.1143 157.882 54.7888C158.082 56.4297 158.514 60.2141 158.88 63.1611C159.91 71.1316 160.243 75.6192 159.91 76.5234C159.445 77.7625 157.849 78.1309 151.965 78.2984C145.648 78.4993 145.781 78.5663 145.448 75.0499C145.316 73.8443 145.083 71.7344 144.917 70.3614C144.75 68.9548 144.385 65.5724 144.085 62.8262C143.786 60.0466 143.155 54.7888 142.689 51.1049C142.257 47.4211 141.692 42.5986 141.426 40.3883C140.428 30.9108 139.797 26.4567 139.464 26.5906C139.265 26.6241 138.334 28.7005 137.337 31.1787C136.372 33.6569 133.946 39.685 131.918 44.5745C129.89 49.4304 127.429 55.4585 126.432 57.9703C125.435 60.4485 124.338 63.0941 124.005 63.8309C123.673 64.5677 122.476 67.5817 121.346 70.5288C120.182 73.4759 119.085 76.2555 118.885 76.6909C118.221 78.0639 117.157 78.3653 112.935 78.3653C108.413 78.3988 108.646 78.5663 107.017 74.1457C105.388 69.5576 103.393 64.2998 101.531 59.5778C100.534 57.066 99.7361 54.9227 99.7361 54.7888C99.7361 54.6548 99.5034 54.052 99.2374 53.4827C98.9715 52.9133 98.373 51.3728 97.9408 50.1002C96.611 46.3159 92.6216 35.7333 90.7931 31.0782C89.829 28.734 89.0976 26.6576 89.0976 26.4567C89.0976 25.7534 88.4659 26.1888 88.2664 27.0595C88.0337 28.1646 87.1693 34.6281 86.7704 38.3789C86.3715 41.8283 85.5403 48.5262 84.7424 54.6213C84.3767 57.267 83.6453 63.3956 83.0802 68.1845C81.8168 79.1021 82.3488 78.3988 75.9657 78.3988C73.4722 78.3988 71.3778 78.2984 71.3113 78.1644Z" fill="#019740"/>
</svg>
